<svg width="82" height="19" viewBox="0 0 82 19" fill="none" xmlns="http://www.w3.org/2000/svg">
<path d="M8.67478 16.056C10.7148 16.056 12.2988 15.168 13.3548 13.872L15.3468 15.192C13.8108 17.112 11.4588 18.312 8.67478 18.312C3.70678 18.312 0.130781 14.52 0.130781 9.6C0.130781 4.68 3.70678 0.912 8.67478 0.912C11.4588 0.912 13.8108 2.088 15.3468 4.032L13.3548 5.328C12.2988 4.032 10.7148 3.144 8.67478 3.144C4.76278 3.144 2.57878 6.336 2.57878 9.6C2.57878 12.864 4.76278 16.056 8.67478 16.056ZM23.4612 5.544C26.1972 5.544 28.1412 7.824 28.1412 10.392V18H25.9332V11.016C25.9332 9.312 25.2132 7.608 22.9332 7.608C20.6292 7.608 19.6932 9.6 19.6932 11.016V18H17.5092V1.2H19.6932V7.536C20.4132 6.456 21.6132 5.544 23.4612 5.544ZM34.915 7.68C35.779 6.312 37.315 5.544 38.755 5.544V9.72C35.299 9.192 34.915 11.16 34.915 13.2V18H31.027V5.832H34.915V7.68ZM46.2569 5.544C50.0729 5.544 52.7849 8.304 52.7849 11.928C52.7849 15.528 50.0729 18.312 46.2569 18.312C42.4649 18.312 39.7289 15.528 39.7289 11.928C39.7289 8.304 42.4649 5.544 46.2569 5.544ZM46.2569 14.52C47.8409 14.52 48.8729 13.344 48.8729 11.928C48.8729 10.512 47.8409 9.312 46.2569 9.312C44.6969 9.312 43.6649 10.512 43.6649 11.928C43.6649 13.344 44.6969 14.52 46.2569 14.52ZM61.9229 5.544C64.9469 5.544 66.3869 7.944 66.3869 10.392V18H62.4749V11.448C62.4749 10.056 61.6109 9.36 60.5309 9.36C59.4029 9.36 58.5869 10.104 58.5869 11.448V18H54.6989V5.832H58.5869V6.96C59.2829 6.168 60.3389 5.544 61.9229 5.544ZM74.8272 5.544C78.6432 5.544 81.3552 8.304 81.3552 11.928C81.3552 15.528 78.6432 18.312 74.8272 18.312C71.0352 18.312 68.2992 15.528 68.2992 11.928C68.2992 8.304 71.0352 5.544 74.8272 5.544ZM74.8272 14.52C76.4112 14.52 77.4432 13.344 77.4432 11.928C77.4432 10.512 76.4112 9.312 74.8272 9.312C73.2672 9.312 72.2352 10.512 72.2352 11.928C72.2352 13.344 73.2672 14.52 74.8272 14.52Z" fill="#E1B731"/>
</svg>
